<svg width="105" height="20" viewBox="0 0 105 20" fill="none"
    xmlns="http://www.w3.org/2000/svg">
    <path d="M3.59773 0.0799992C4.37107 0.0799992 4.97773 0.326666 5.41773 0.819999C5.87107 1.3 6.09773 1.83333 6.09773 2.42C6.09773 2.99333 5.93773 3.58 5.61773 4.18C5.31107 4.76667 4.97107 5.3 4.59773 5.78C4.23773 6.26 3.89773 6.83333 3.57773 7.5C3.27107 8.16667 3.11773 8.81333 3.11773 9.44C3.11773 10.5467 3.4844 11.3733 4.21773 11.92C4.95107 12.4667 5.87107 12.74 6.97773 12.74C7.55107 12.74 8.15773 12.6133 8.79773 12.36C9.45107 12.0933 9.9644 11.8067 10.3377 11.5C10.4177 9.5 10.4577 7.88 10.4577 6.64C10.4577 5.38667 10.4244 4.17333 10.3577 3C10.3044 1.81333 10.2777 1.2 10.2777 1.16C10.2777 0.879999 10.3644 0.633333 10.5377 0.42C10.7244 0.193333 10.9577 0.0799992 11.2377 0.0799992C11.5177 0.0799992 11.7444 0.193333 11.9177 0.42C12.1044 0.633333 12.1977 0.879999 12.1977 1.16C12.1977 1.2 12.1644 1.81333 12.0977 3C12.0444 4.17333 12.0177 5.47333 12.0177 6.9C12.0177 8.32667 12.0444 9.67333 12.0977 10.94C12.1644 12.2067 12.1977 12.9467 12.1977 13.16C12.1977 13.3733 12.1044 13.5867 11.9177 13.8C11.7444 14.0133 11.5177 14.12 11.2377 14.12C10.9577 14.12 10.7244 14.0133 10.5377 13.8C10.3644 13.5867 10.2777 13.3467 10.2777 13.08V12.54C9.01107 13.5933 7.67773 14.12 6.27773 14.12C4.89107 14.12 3.73773 13.76 2.81773 13.04C1.91107 12.32 1.45773 11.3467 1.45773 10.12C1.45773 9.32 1.61773 8.54 1.93773 7.78C2.27107 7.02 2.63107 6.4 3.01773 5.92C4.05773 4.65333 4.57773 3.66667 4.57773 2.96C4.57773 2.05333 4.1044 1.6 3.15773 1.6C2.7844 1.6 2.47773 1.74667 2.23773 2.04C2.01107 2.33333 1.89773 2.73333 1.89773 3.24C1.89773 3.41333 1.83773 3.56667 1.71773 3.7C1.61107 3.82 1.47773 3.88 1.31773 3.88C1.15773 3.88 1.0244 3.82 0.917734 3.7C0.824401 3.56667 0.777734 3.41333 0.777734 3.24C0.777734 2.34667 1.05773 1.6 1.61773 0.999999C2.17773 0.386666 2.83773 0.0799992 3.59773 0.0799992ZM15.2734 14.1C14.98 14.1 14.74 14 14.5534 13.8C14.38 13.5867 14.2934 13.3667 14.2934 13.14C14.2934 12.9133 14.3667 12.6533 14.5134 12.36C14.66 12.0667 14.88 11.7133 15.1734 11.3C15.48 10.8867 15.7867 10.4867 16.0934 10.1C16.4 9.71333 16.7934 9.21333 17.2734 8.6C17.7667 7.98667 18.1867 7.45333 18.5334 7C18.0267 6.32 17.36 5.47333 16.5334 4.46C15.7067 3.44667 15.1267 2.7 14.7934 2.22C14.46 1.72667 14.2934 1.34667 14.2934 1.08C14.2934 0.813333 14.36 0.58 14.4934 0.379999C14.64 0.179999 14.8867 0.0799992 15.2334 0.0799992C15.58 0.0799992 15.9334 0.339999 16.2934 0.86C17.7067 3.15333 18.76 4.77333 19.4534 5.72C20.12 4.81333 20.8067 3.8 21.5134 2.68C22.22 1.54667 22.6067 0.933333 22.6734 0.839999C22.9934 0.333332 23.3 0.0799992 23.5934 0.0799992C24.1667 0.0799992 24.4534 0.366666 24.4534 0.939999C24.4534 1.32667 24.1334 1.93333 23.4934 2.76C22.9067 3.49333 22.2867 4.24 21.6334 5C20.9934 5.76 20.52 6.33333 20.2134 6.72C20.5067 7.09333 21 7.73333 21.6934 8.64C22.3867 9.53333 22.8934 10.1867 23.2134 10.6C23.5334 11 23.98 11.5667 24.5534 12.3C25.1267 13.0333 25.58 13.5933 25.9134 13.98C26.26 14.3667 26.6534 14.7933 27.0934 15.26C27.88 16.1133 28.5134 16.6733 28.9934 16.94C29.4867 17.2067 30.02 17.4467 30.5934 17.66C31.18 17.8733 31.5867 18.0533 31.8134 18.2C32.0534 18.3467 32.1734 18.5467 32.1734 18.8C32.1734 19.0533 32.0534 19.28 31.8134 19.48C31.5867 19.6933 31.26 19.8 30.8334 19.8C30.42 19.8 29.96 19.7 29.4534 19.5C28.96 19.3 28.5 19.06 28.0734 18.78C27.6467 18.5133 27.16 18.1067 26.6134 17.56C26.0667 17.0133 25.6 16.52 25.2134 16.08C24.8267 15.6533 24.3267 15.04 23.7134 14.24C23.1134 13.44 22.64 12.7933 22.2934 12.3C21.32 10.9533 20.3067 9.52 19.2534 8C17.96 9.81333 16.9734 11.5867 16.2934 13.32C16.0934 13.84 15.7534 14.1 15.2734 14.1ZM32.6115 9.2L32.4715 5.86C32.4715 5.58 32.5582 5.34667 32.7315 5.16C32.9182 4.97333 33.1382 4.88 33.3915 4.88C33.6448 4.88 33.8515 4.97333 34.0115 5.16C34.1715 5.33333 34.2515 5.55333 34.2515 5.82C34.2515 6.08667 34.2448 6.28667 34.2315 6.42C35.0048 5.39333 35.8248 4.88 36.6915 4.88C37.7048 4.88 38.4315 5.48667 38.8715 6.7C39.7248 5.48667 40.6448 4.88 41.6315 4.88C42.8982 4.88 43.7182 5.82 44.0915 7.7L44.7915 11.14C44.8582 11.46 45.0182 11.8 45.2715 12.16C45.5248 12.5067 45.6515 12.84 45.6515 13.16C45.6515 13.4667 45.5515 13.7067 45.3515 13.88C45.1648 14.04 44.9382 14.12 44.6715 14.12C44.0582 14.12 43.6582 13.5933 43.4715 12.54L42.7315 8.36C42.6382 7.77333 42.4448 7.29333 42.1515 6.92C41.8582 6.54667 41.4782 6.36 41.0115 6.36C40.3848 6.36 39.7848 6.9 39.2115 7.98L39.8515 11.14C39.9182 11.46 40.0782 11.8 40.3315 12.16C40.5848 12.5067 40.7115 12.84 40.7115 13.16C40.7115 13.4667 40.6115 13.7067 40.4115 13.88C40.2248 14.04 39.9982 14.12 39.7315 14.12C39.1182 14.12 38.7182 13.5933 38.5315 12.54L37.7915 8.36C37.6982 7.81333 37.4715 7.34667 37.1115 6.96C36.7515 6.56 36.3182 6.36 35.8115 6.36C35.3182 6.36 34.9182 6.55333 34.6115 6.94C34.3182 7.32667 34.1582 7.71333 34.1315 8.1C34.1182 8.47333 34.1115 8.84 34.1115 9.2L34.2515 13.16C34.2515 13.44 34.1715 13.6733 34.0115 13.86C33.8515 14.0333 33.6448 14.12 33.3915 14.12C33.1382 14.12 32.9182 14.0333 32.7315 13.86C32.5582 13.6733 32.4715 13.44 32.4715 13.16L32.6115 9.2ZM49.0496 7.34C48.4629 7.92667 48.1696 8.64667 48.1696 9.5C48.1696 10.3533 48.4629 11.08 49.0496 11.68C49.6496 12.2667 50.3696 12.56 51.2096 12.56C52.0629 12.56 52.7763 12.2667 53.3496 11.68C53.9229 11.08 54.2096 10.3533 54.2096 9.5C54.2096 8.64667 53.9229 7.92667 53.3496 7.34C52.7763 6.75333 52.0629 6.46 51.2096 6.46C50.3696 6.46 49.6496 6.75333 49.0496 7.34ZM49.8496 14.12C48.9963 14.12 48.2829 13.7867 47.7096 13.12C47.1363 12.4533 46.8496 11.62 46.8496 10.62C46.8496 9.60667 47.1629 8.63333 47.7896 7.7C48.4163 6.75333 49.1496 6.04667 49.9896 5.58C50.8296 5.11333 51.6763 4.88 52.5296 4.88C53.3829 4.88 54.0963 5.21333 54.6696 5.88C55.2429 6.54667 55.5296 7.38667 55.5296 8.4C55.5296 9.4 55.2163 10.3733 54.5896 11.32C53.9629 12.2533 53.2296 12.9533 52.3896 13.42C51.5496 13.8867 50.7029 14.12 49.8496 14.12ZM57.5571 12.54C57.5571 10.86 57.5238 9.38667 57.4571 8.12C57.3904 6.85333 57.3571 6.10667 57.3571 5.88C57.3571 5.65333 57.4438 5.43333 57.6171 5.22C57.8038 4.99333 58.0238 4.88 58.2771 4.88C58.5304 4.88 58.7371 4.98667 58.8971 5.2C59.0571 5.4 59.1371 5.7 59.1371 6.1C59.1371 6.48667 59.0904 7.14667 58.9971 8.08C58.9038 9 58.8571 9.96 58.8571 10.96C58.8571 11.36 58.9371 11.7467 59.0971 12.12C59.2704 12.48 59.3571 12.8133 59.3571 13.12C59.3571 13.4133 59.2704 13.6533 59.0971 13.84C58.9371 14.0267 58.7104 14.12 58.4171 14.12C58.1371 14.12 57.9238 13.96 57.7771 13.64C57.6304 13.32 57.5571 12.9533 57.5571 12.54ZM58.1971 2.62C57.9038 2.62 57.6704 2.54 57.4971 2.38C57.3238 2.22 57.2371 1.98667 57.2371 1.68C57.2371 1.37333 57.3438 1.11333 57.5571 0.899999C57.7704 0.673332 58.0238 0.559999 58.3171 0.559999C58.6104 0.559999 58.8438 0.646666 59.0171 0.819999C59.2038 0.98 59.2971 1.21333 59.2971 1.52C59.2971 1.82667 59.1838 2.08667 58.9571 2.3C58.7438 2.51333 58.4904 2.62 58.1971 2.62ZM69.7174 8.28L69.8374 13.16C69.8374 13.44 69.7574 13.6733 69.5974 13.86C69.4374 14.0333 69.2308 14.12 68.9774 14.12C68.7241 14.12 68.5041 14.0333 68.3174 13.86C68.1441 13.6733 68.0574 13.44 68.0574 13.16L68.1974 9.2C68.1974 9.2 68.1508 8.08667 68.0574 5.86C68.0574 5.58 68.1441 5.34667 68.3174 5.16C68.5041 4.97333 68.7241 4.88 68.9774 4.88C69.2308 4.88 69.4374 4.97333 69.5974 5.16C69.7574 5.33333 69.8374 5.55333 69.8374 5.82C69.8374 6.08667 69.8308 6.28667 69.8174 6.42C70.5641 5.39333 71.4241 4.88 72.3974 4.88C73.7974 4.88 74.6974 5.82 75.0974 7.7L75.8574 11.14C75.9374 11.4467 76.0974 11.78 76.3374 12.14C76.5908 12.4867 76.7174 12.8 76.7174 13.08C76.7174 13.7733 76.3841 14.12 75.7174 14.12C75.0508 14.12 74.6174 13.5933 74.4174 12.54L73.6574 8.36C73.4041 7.02667 72.7174 6.36 71.5974 6.36C71.0241 6.36 70.5774 6.55333 70.2574 6.94C69.9374 7.32667 69.7574 7.77333 69.7174 8.28ZM82.3038 6.46C81.4505 6.46 80.7238 6.75333 80.1238 7.34C79.5372 7.92667 79.2438 8.64667 79.2438 9.5C79.2438 10.3533 79.5372 11.08 80.1238 11.68C80.7238 12.2667 81.4372 12.56 82.2638 12.56C83.0905 12.56 83.7772 12.3 84.3238 11.78C84.8838 11.2467 85.1972 10.5867 85.2638 9.8C85.2505 9.41333 85.2438 8.97333 85.2438 8.48C85.2438 7.98667 85.3305 7.63333 85.5038 7.42C85.6905 7.19333 85.9105 7.08 86.1638 7.08C86.4172 7.08 86.6238 7.18667 86.7838 7.4C86.9438 7.6 87.0238 7.84667 87.0238 8.14C87.0238 8.43333 87.0105 8.72667 86.9838 9.02C86.9705 9.3 86.9438 9.66667 86.9038 10.12C86.7705 11.6 86.7038 12.9867 86.7038 14.28C86.7038 15.5733 86.1305 16.8133 84.9838 18C83.8372 19.2 82.5572 19.8 81.1438 19.8C80.4372 19.8 79.8238 19.6 79.3038 19.2C78.7838 18.8 78.5238 18.3667 78.5238 17.9C78.5238 17.66 78.6038 17.4467 78.7638 17.26C78.9372 17.0733 79.1372 16.98 79.3638 16.98C79.6038 16.98 79.8172 17.0467 80.0038 17.18C80.2038 17.3133 80.3838 17.46 80.5438 17.62C80.7172 17.78 80.9705 17.9267 81.3038 18.06C81.6505 18.1933 82.0372 18.26 82.4638 18.26C83.3038 18.26 84.0038 17.9467 84.5638 17.32C85.1238 16.7067 85.4038 15.9733 85.4038 15.12C85.4038 15.0133 85.3838 13.9 85.3438 11.78C84.7705 12.5 84.0838 13.0733 83.2838 13.5C82.4972 13.9133 81.7505 14.12 81.0438 14.12C80.1105 14.12 79.3572 13.7867 78.7838 13.12C78.2105 12.4533 77.9238 11.62 77.9238 10.62C77.9238 9.60667 78.2372 8.63333 78.8638 7.7C79.4905 6.75333 80.2238 6.04667 81.0638 5.58C81.9038 5.11333 82.6572 4.88 83.3238 4.88C83.9905 4.88 84.4572 4.98667 84.7238 5.2C85.0038 5.4 85.1438 5.64667 85.1438 5.94C85.1438 6.22 85.0505 6.45333 84.8638 6.64C84.6905 6.82667 84.5172 6.92 84.3438 6.92C84.1838 6.92 83.8905 6.84667 83.4638 6.7C83.0505 6.54 82.6638 6.46 82.3038 6.46ZM95.6693 11.32C95.7626 11.56 95.956 11.8867 96.2493 12.3C96.556 12.7 96.7093 13.0267 96.7093 13.28C96.7093 13.5333 96.6426 13.74 96.5093 13.9C96.376 14.0467 96.196 14.12 95.9693 14.12C95.4226 14.12 94.936 13.5533 94.5093 12.42L94.3493 11.98C93.6693 13.4067 92.6493 14.12 91.2893 14.12C90.6093 14.12 90.0426 13.9067 89.5893 13.48C89.1493 13.04 88.9293 12.4933 88.9293 11.84C88.9293 10.8267 89.276 9.95333 89.9693 9.22C90.6626 8.48667 91.5693 8.09333 92.6893 8.04C92.4226 7.57333 92.1226 7.22667 91.7893 7C91.4693 6.76 91.176 6.62 90.9093 6.58C90.6426 6.54 90.3893 6.52 90.1493 6.52C89.9226 6.50667 89.7426 6.45333 89.6093 6.36C89.476 6.26667 89.4093 6.08667 89.4093 5.82C89.4093 5.54 89.516 5.31333 89.7293 5.14C89.956 4.96667 90.2226 4.88 90.5293 4.88C91.396 4.88 92.2493 5.31333 93.0893 6.18C93.9293 7.04667 94.6626 8.40667 95.2893 10.26L95.6693 11.32ZM92.1893 9.1C91.7093 9.1 91.276 9.26 90.8893 9.58C90.516 9.9 90.3293 10.3133 90.3293 10.82C90.3293 11.3267 90.496 11.7533 90.8293 12.1C91.176 12.4333 91.5893 12.6 92.0693 12.6C92.5493 12.6 92.9626 12.4333 93.3093 12.1C93.656 11.7533 93.8293 11.3467 93.8293 10.88C93.8293 10.5467 93.7693 10.24 93.6493 9.96C93.5293 9.66667 93.456 9.48667 93.4293 9.42C93.0826 9.20667 92.6693 9.1 92.1893 9.1ZM104.438 11.46L104.398 14.26C104.398 15.5667 103.824 16.8133 102.678 18C101.531 19.2 100.251 19.8 98.8376 19.8C98.1309 19.8 97.5176 19.6 96.9976 19.2C96.4776 18.8 96.2176 18.3667 96.2176 17.9C96.2176 17.66 96.2976 17.4467 96.4576 17.26C96.6309 17.0733 96.8309 16.98 97.0576 16.98C97.2976 16.98 97.5109 17.0467 97.6976 17.18C97.8976 17.3133 98.0776 17.46 98.2376 17.62C98.4109 17.78 98.6642 17.9267 98.9976 18.06C99.3442 18.1933 99.7309 18.26 100.158 18.26C100.998 18.26 101.718 17.9467 102.318 17.32C102.918 16.7067 103.218 15.9733 103.218 15.12C103.218 13.9467 103.211 13.1133 103.198 12.62C102.584 13.62 101.818 14.12 100.898 14.12C100.138 14.12 99.5309 13.8467 99.0776 13.3C98.6376 12.7533 98.3309 12.0867 98.1576 11.3L97.3976 7.86C97.3176 7.47333 97.1376 7.13333 96.8576 6.84C96.5909 6.53333 96.4576 6.22667 96.4576 5.92C96.4576 5.61333 96.5642 5.36667 96.7776 5.18C96.9909 4.98 97.2242 4.88 97.4776 4.88C97.7309 4.88 97.9376 4.92667 98.0976 5.02C98.2576 5.11333 98.3909 5.25333 98.4976 5.44C98.6442 5.72 98.7576 6.06 98.8376 6.46L99.7176 10.64C99.8642 11.2933 100.058 11.7933 100.298 12.14C100.551 12.4733 100.938 12.64 101.458 12.64C101.978 12.64 102.391 12.4467 102.698 12.06C103.018 11.66 103.178 11.1667 103.178 10.58L103.038 6.08C103.038 5.72 103.124 5.43333 103.298 5.22C103.484 4.99333 103.704 4.88 103.958 4.88C104.211 4.88 104.418 4.98667 104.578 5.2C104.738 5.4 104.818 5.68 104.818 6.04C104.818 6.38667 104.778 6.88 104.698 7.52C104.524 8.90667 104.438 10.22 104.438 11.46Z" fill="black"/>
</svg>
